<?xml version="1.0" standalone="no"?>
<!DOCTYPE svg PUBLIC "-//W3C//DTD SVG 20010904//EN"
 "http://www.w3.org/TR/2001/REC-SVG-20010904/DTD/svg10.dtd">
<svg version="1.0" xmlns="http://www.w3.org/2000/svg"
 width="419.000000pt" height="450.000000pt" viewBox="0 0 419.000000 450.000000"
 preserveAspectRatio="xMidYMid meet">

<g transform="translate(0.000000,450.000000) scale(0.100000,-0.100000)"
fill="#000000" stroke="none">
<path d="M574 4329 c-16 -18 -19 -40 -22 -150 l-4 -129 82 0 82 0 -4 129 c-4
149 -13 171 -78 171 -25 0 -43 -7 -56 -21z"/>
<path d="M1162 4327 c-20 -21 -22 -34 -22 -150 l0 -127 75 0 75 0 0 130 c0
117 -2 132 -20 150 -28 28 -81 26 -108 -3z"/>
<path d="M1755 4336 c-22 -16 -33 -84 -34 -203 l-1 -83 80 0 80 0 0 124 c0
110 -2 126 -21 150 -23 29 -72 35 -104 12z"/>
<path d="M2331 4324 c-19 -24 -21 -40 -21 -150 l0 -124 80 0 80 0 -1 83 c-1
119 -12 187 -34 203 -32 23 -81 17 -104 -12z"/>
<path d="M2920 4330 c-18 -18 -20 -33 -20 -150 l0 -130 75 0 75 0 0 128 c0
121 -1 130 -23 150 -30 28 -80 29 -107 2z"/>
<path d="M3504 4329 c-16 -18 -19 -40 -22 -150 l-4 -129 82 0 82 0 -4 129 c-4
149 -13 171 -78 171 -25 0 -43 -7 -56 -21z"/>
<path d="M483 4006 c-26 -23 -28 -30 -31 -118 -2 -51 -8 -97 -13 -103 -5 -5
-9 -17 -9 -27 0 -17 14 -18 199 -18 163 0 200 3 204 14 3 8 0 20 -8 26 -9 7
-14 42 -17 106 -3 91 -5 97 -31 120 -26 22 -36 24 -147 24 -111 0 -121 -2
-147 -24z m17 -136 c0 -47 -4 -80 -10 -80 -6 0 -10 33 -10 80 0 47 4 80 10 80
6 0 10 -33 10 -80z m40 1 c0 -44 -4 -83 -10 -86 -6 -4 -10 25 -10 79 0 51 4
86 10 86 6 0 10 -33 10 -79z m40 0 c0 -44 -4 -83 -10 -86 -6 -4 -10 25 -10 79
0 51 4 86 10 86 6 0 10 -33 10 -79z m40 0 c0 -44 -4 -83 -10 -86 -6 -4 -10 25
-10 79 0 51 4 86 10 86 6 0 10 -33 10 -79z m40 -6 c0 -41 -4 -77 -10 -80 -6
-4 -10 25 -10 80 0 55 4 84 10 80 6 -3 10 -39 10 -80z m38 -6 c-2 -41 -7 -74
-13 -74 -11 0 -20 129 -10 153 13 35 26 -9 23 -79z m40 0 c-2 -41 -7 -74 -13
-74 -11 0 -20 129 -10 153 13 35 26 -9 23 -79z m40 0 c-2 -41 -7 -74 -13 -74
-11 0 -20 129 -10 153 13 35 26 -9 23 -79z"/>
<path d="M1085 4018 c-37 -21 -44 -41 -45 -123 0 -51 -6 -90 -15 -109 -8 -15
-12 -32 -9 -37 3 -5 95 -9 205 -9 192 0 199 1 199 20 0 11 -4 20 -9 20 -5 0
-11 42 -15 93 -9 117 -11 124 -46 142 -36 18 -234 21 -265 3z m5 -153 c0 -41
-4 -77 -10 -80 -6 -4 -10 25 -10 80 0 55 4 84 10 80 6 -3 10 -39 10 -80z m38
-6 c-2 -41 -7 -74 -13 -74 -11 0 -20 129 -10 153 13 35 26 -9 23 -79z m40 0
c-2 -41 -7 -74 -13 -74 -11 0 -20 129 -10 153 13 35 26 -9 23 -79z m40 0 c-2
-41 -7 -74 -13 -74 -11 0 -20 129 -10 153 13 35 26 -9 23 -79z m32 5 c0 -54
-4 -83 -10 -79 -11 7 -14 148 -3 158 12 13 13 7 13 -79z m40 0 c0 -54 -4 -83
-10 -79 -11 7 -14 148 -3 158 12 13 13 7 13 -79z m40 0 c0 -54 -4 -83 -10 -79
-5 3 -10 42 -10 86 0 46 4 79 10 79 6 0 10 -35 10 -86z m40 0 c0 -54 -4 -83
-10 -79 -5 3 -10 42 -10 86 0 46 4 79 10 79 6 0 10 -35 10 -86z"/>
<path d="M1673 4020 c-37 -15 -53 -61 -53 -155 0 -50 -4 -85 -10 -85 -5 0 -10
-9 -10 -20 0 -19 7 -20 199 -20 206 0 228 4 197 39 -12 13 -16 39 -16 105 0
83 -1 89 -29 117 -29 29 -31 29 -143 28 -62 0 -123 -4 -135 -9z m-3 -156 c0
-54 -4 -83 -10 -79 -11 7 -14 148 -3 158 12 13 13 7 13 -79z m40 0 c0 -54 -4
-83 -10 -79 -5 3 -10 42 -10 86 0 46 4 79 10 79 6 0 10 -35 10 -86z m40 0 c0
-54 -4 -83 -10 -79 -5 3 -10 42 -10 86 0 46 4 79 10 79 6 0 10 -35 10 -86z
m40 1 c0 -50 -4 -85 -10 -85 -6 0 -10 35 -10 85 0 50 4 85 10 85 6 0 10 -35
10 -85z m40 6 c0 -44 -4 -83 -10 -86 -6 -4 -10 25 -10 79 0 51 4 86 10 86 6 0
10 -33 10 -79z m40 0 c0 -44 -4 -83 -10 -86 -6 -4 -10 25 -10 79 0 51 4 86 10
86 6 0 10 -33 10 -79z m40 -6 c0 -41 -4 -77 -10 -80 -6 -4 -10 25 -10 80 0 55
4 84 10 80 6 -3 10 -39 10 -80z m40 0 c0 -41 -4 -77 -10 -80 -6 -4 -10 25 -10
80 0 55 4 84 10 80 6 -3 10 -39 10 -80z"/>
<path d="M2239 4001 c-28 -28 -29 -34 -29 -117 0 -66 -4 -92 -16 -105 -31 -35
-9 -39 197 -39 192 0 199 1 199 20 0 11 -4 20 -10 20 -6 0 -10 33 -10 80 0 95
-18 146 -55 160 -15 6 -76 10 -136 10 -109 0 -111 0 -140 -29z m21 -130 c0
-44 -4 -83 -10 -86 -6 -4 -10 25 -10 79 0 51 4 86 10 86 6 0 10 -33 10 -79z
m40 0 c0 -44 -4 -83 -10 -86 -6 -4 -10 25 -10 79 0 51 4 86 10 86 6 0 10 -33
10 -79z m40 -6 c0 -41 -4 -77 -10 -80 -6 -4 -10 25 -10 80 0 55 4 84 10 80 6
-3 10 -39 10 -80z m38 -6 c-2 -41 -7 -74 -13 -74 -11 0 -20 129 -10 153 13 35
26 -9 23 -79z m40 0 c-2 -41 -7 -74 -13 -74 -11 0 -20 129 -10 153 13 35 26
-9 23 -79z m40 0 c-2 -41 -7 -74 -13 -74 -11 0 -20 129 -10 153 13 35 26 -9
23 -79z m40 0 c-2 -41 -7 -74 -13 -74 -11 0 -20 129 -10 153 13 35 26 -9 23
-79z m32 5 c0 -54 -4 -83 -10 -79 -11 7 -14 148 -3 158 12 13 13 7 13 -79z"/>
<path d="M2839 4015 c-34 -19 -36 -25 -45 -139 -4 -53 -11 -96 -15 -96 -5 0
-9 -9 -9 -20 0 -19 7 -20 199 -20 122 0 202 4 206 10 3 5 -1 20 -9 32 -11 16
-16 47 -16 108 -1 127 -17 140 -177 140 -74 -1 -116 -5 -134 -15z m9 -156 c-2
-41 -7 -74 -13 -74 -11 0 -20 129 -10 153 13 35 26 -9 23 -79z m40 0 c-2 -41
-7 -74 -13 -74 -11 0 -20 129 -10 153 13 35 26 -9 23 -79z m32 5 c0 -54 -4
-83 -10 -79 -11 7 -14 148 -3 158 12 13 13 7 13 -79z m40 0 c0 -54 -4 -83 -10
-79 -5 3 -10 42 -10 86 0 46 4 79 10 79 6 0 10 -35 10 -86z m40 0 c0 -54 -4
-83 -10 -79 -5 3 -10 42 -10 86 0 46 4 79 10 79 6 0 10 -35 10 -86z m40 0 c0
-54 -4 -83 -10 -79 -5 3 -10 42 -10 86 0 46 4 79 10 79 6 0 10 -35 10 -86z
m40 7 c0 -44 -4 -83 -10 -86 -6 -4 -10 25 -10 79 0 51 4 86 10 86 6 0 10 -33
10 -79z m40 0 c0 -44 -4 -83 -10 -86 -6 -4 -10 25 -10 79 0 51 4 86 10 86 6 0
10 -33 10 -79z"/>
<path d="M3413 4006 c-26 -23 -28 -29 -31 -120 -3 -64 -8 -99 -17 -106 -8 -6
-11 -18 -8 -26 4 -11 41 -14 204 -14 185 0 199 1 199 18 0 10 -4 22 -9 28 -5
5 -11 51 -13 102 -3 88 -5 95 -31 118 -26 22 -36 24 -147 24 -111 0 -121 -2
-147 -24z m17 -142 c0 -54 -4 -83 -10 -79 -5 3 -10 42 -10 86 0 46 4 79 10 79
6 0 10 -35 10 -86z m40 7 c0 -44 -4 -83 -10 -86 -6 -4 -10 25 -10 79 0 51 4
86 10 86 6 0 10 -33 10 -79z m40 0 c0 -44 -4 -83 -10 -86 -6 -4 -10 25 -10 79
0 51 4 86 10 86 6 0 10 -33 10 -79z m40 0 c0 -44 -4 -83 -10 -86 -6 -4 -10 25
-10 79 0 51 4 86 10 86 6 0 10 -33 10 -79z m40 -6 c0 -41 -4 -77 -10 -80 -6
-4 -10 25 -10 80 0 55 4 84 10 80 6 -3 10 -39 10 -80z m40 0 c0 -41 -4 -77
-10 -80 -6 -4 -10 25 -10 80 0 55 4 84 10 80 6 -3 10 -39 10 -80z m38 -6 c-2
-41 -7 -74 -13 -74 -11 0 -20 129 -10 153 13 35 26 -9 23 -79z m40 0 c-2 -41
-7 -74 -13 -74 -11 0 -20 129 -10 153 13 35 26 -9 23 -79z"/>
<path d="M466 3704 c-14 -38 10 -44 169 -44 127 0 154 3 159 15 3 8 3 22 0 30
-5 12 -33 15 -164 15 -137 0 -159 -2 -164 -16z"/>
<path d="M1054 3705 c-4 -8 -4 -22 0 -30 5 -13 29 -15 163 -13 l158 3 0 25 0
25 -158 3 c-134 2 -158 0 -163 -13z"/>
<path d="M1640 3705 c-10 -12 -10 -18 0 -30 11 -13 39 -15 169 -13 l156 3 0
25 0 25 -156 3 c-130 2 -158 0 -169 -13z"/>
<path d="M2224 3705 c-4 -8 -4 -22 0 -30 4 -12 32 -15 159 -15 125 0 157 3
167 15 10 12 10 18 0 30 -10 12 -42 15 -167 15 -127 0 -155 -3 -159 -15z"/>
<path d="M2814 3705 c-4 -8 -4 -22 0 -30 5 -13 29 -15 163 -13 l158 3 0 25 0
25 -158 3 c-134 2 -158 0 -163 -13z"/>
<path d="M3396 3705 c-3 -8 -3 -22 0 -30 5 -12 32 -15 159 -15 159 0 183 6
169 44 -5 14 -27 16 -164 16 -131 0 -159 -3 -164 -15z"/>
<path d="M443 3618 c-42 -47 -43 -54 -43 -438 0 -492 -11 -470 230 -470 241 0
230 -22 230 470 0 384 -1 391 -43 438 -20 21 -27 22 -187 22 -160 0 -167 -1
-187 -22z m127 -98 l0 -90 -71 0 -71 0 4 66 c4 58 8 70 32 90 18 17 40 24 67
24 l39 0 0 -90z m88 -2 l3 -88 -31 0 -30 0 0 83 c0 46 3 87 7 91 4 4 16 6 28
4 18 -3 20 -11 23 -90z m138 68 c24 -20 28 -32 32 -90 l4 -66 -71 0 -71 0 0
90 0 90 39 0 c27 0 49 -7 67 -24z m-88 -270 c107 -56 131 -196 48 -279 -67
-67 -168 -70 -240 -7 -45 40 -59 79 -54 144 5 63 42 120 92 142 41 17 120 18
154 0z m-127 -479 c13 -27 21 -32 50 -32 29 0 36 5 49 32 15 32 16 33 84 33
l69 0 -6 -42 c-4 -29 -14 -50 -32 -65 -24 -21 -36 -23 -161 -23 -75 0 -144 5
-155 10 -24 13 -49 61 -49 95 0 24 2 25 68 25 66 0 67 -1 83 -33z m79 24 c0
-5 -7 -14 -15 -21 -12 -10 -18 -10 -30 0 -23 19 -18 30 15 30 17 0 30 -4 30
-9z"/>
<path d="M1025 3616 c-41 -41 -45 -82 -45 -446 1 -474 -7 -460 236 -460 140 0
153 2 179 22 53 42 55 57 55 445 0 330 -2 361 -19 400 -11 23 -28 46 -39 52
-13 7 -85 11 -182 11 -156 0 -162 -1 -185 -24z m135 -56 l0 -50 -70 0 c-77 0
-83 6 -55 60 17 34 27 38 83 39 l42 1 0 -50z m80 -40 c0 -89 0 -90 -25 -90
-25 0 -25 1 -25 90 0 89 0 90 25 90 25 0 25 -1 25 -90z m137 75 c11 -8 26 -28
32 -45 13 -38 5 -42 -75 -38 -59 3 -59 3 -62 36 -2 19 -1 40 2 48 7 19 75 18
103 -1z m-63 -224 c3 -4 -3 -16 -14 -26 -11 -10 -20 -27 -20 -38 0 -17 5 -18
36 -12 33 6 36 5 31 -14 -3 -13 4 -29 20 -46 25 -24 25 -25 4 -25 -18 0 -21
-6 -21 -44 0 -37 -8 -55 -55 -119 -62 -84 -106 -114 -149 -97 -33 12 -42 34
-60 143 -15 88 -11 126 15 142 8 6 5 13 -12 26 -24 19 -24 19 -2 19 12 0 25 5
28 10 3 6 17 10 31 10 13 0 24 6 24 13 0 6 4 18 9 26 7 11 14 9 34 -14 l24
-29 28 42 c28 42 39 50 49 33z m-74 -516 c0 -21 -30 -31 -41 -14 -14 23 -11
29 16 29 16 0 25 -6 25 -15z"/>
<path d="M1127 3239 c-9 -6 -15 -14 -12 -20 4 -5 -1 -12 -9 -15 -16 -6 -23
-54 -8 -54 4 0 7 -21 7 -46 0 -26 6 -48 14 -53 11 -7 11 -9 0 -13 -11 -4 -11
-10 0 -36 16 -38 48 -49 85 -30 38 20 128 146 121 170 -4 10 -2 18 4 18 19 0
12 26 -14 50 l-25 23 -6 -31 c-6 -29 -30 -50 -43 -36 -3 4 0 9 7 11 10 4 10 8
1 19 -6 8 -16 11 -22 7 -6 -4 -8 0 -4 10 5 13 1 17 -16 17 -13 0 -28 -5 -34
-11 -14 -14 -36 -1 -29 17 6 16 6 16 -17 3z m13 -53 c0 -3 -4 -8 -10 -11 -5
-3 -10 -1 -10 4 0 6 5 11 10 11 6 0 10 -2 10 -4z m20 -46 c0 -5 -5 -10 -11
-10 -5 0 -7 5 -4 10 3 6 8 10 11 10 2 0 4 -4 4 -10z m80 -24 c0 -3 -4 -8 -10
-11 -5 -3 -10 -1 -10 4 0 6 5 11 10 11 6 0 10 -2 10 -4z m-30 -66 c0 -5 -5
-10 -11 -10 -5 0 -7 5 -4 10 3 6 8 10 11 10 2 0 4 -4 4 -10z m50 -14 c0 -3 -4
-8 -10 -11 -5 -3 -10 -1 -10 4 0 6 5 11 10 11 6 0 10 -2 10 -4z m-70 -50 c0
-3 -4 -8 -10 -11 -5 -3 -10 -1 -10 4 0 6 5 11 10 11 6 0 10 -2 10 -4z"/>
<path d="M1612 3618 c-40 -43 -42 -67 -42 -440 0 -342 1 -364 20 -403 11 -23
32 -47 46 -53 15 -8 82 -12 172 -12 236 0 226 -19 230 440 3 373 -1 415 -46
463 l-26 27 -166 0 c-160 0 -167 -1 -188 -22z m133 -19 c4 -5 4 -46 0 -90 l-7
-79 -69 0 -69 0 0 50 c0 55 19 103 47 119 24 14 90 14 98 0z m85 -79 c0 -89 0
-90 -25 -90 -25 0 -25 1 -25 90 0 89 0 90 25 90 25 0 25 -1 25 -90z m141 61
c26 -26 29 -36 29 -90 l0 -61 -70 0 -70 0 0 90 0 90 41 0 c31 0 47 -6 70 -29z
m-95 -227 c10 -14 34 -34 54 -44 22 -11 42 -31 50 -50 17 -41 8 -126 -19 -178
-60 -118 -204 -190 -291 -145 -55 28 -46 48 44 96 47 25 91 57 110 80 28 35
31 46 31 107 0 59 -3 72 -24 94 -24 25 -24 26 -6 46 24 26 31 25 51 -6z m-127
-507 c22 -57 77 -62 101 -10 15 32 16 33 83 33 l67 0 0 -30 c0 -42 -26 -89
-53 -95 -12 -3 -85 -4 -162 -3 l-139 3 -23 34 c-13 19 -23 47 -23 62 l0 29 70
0 c64 0 71 -2 79 -23z m81 14 c0 -14 -28 -33 -40 -26 -20 12 -10 35 15 35 14
0 25 -4 25 -9z"/>
<path d="M2198 3613 c-45 -48 -49 -90 -46 -463 4 -459 -6 -440 230 -440 90 0
157 4 172 12 14 6 35 30 46 53 19 39 20 61 20 403 0 373 -2 397 -42 440 -21
21 -28 22 -188 22 l-166 0 -26 -27z m132 -53 l0 -50 -70 0 c-64 0 -70 2 -70
21 0 11 13 34 29 50 23 23 39 29 70 29 l41 0 0 -50z m80 -40 c0 -89 0 -90 -25
-90 -25 0 -25 1 -25 90 0 89 0 90 25 90 25 0 25 -1 25 -90z m131 80 c25 -14
54 -69 41 -82 -5 -5 -38 -8 -73 -6 l-64 3 -3 33 c-2 19 -1 40 2 48 6 17 68 19
97 4z m-13 -262 c18 -18 17 -352 -2 -367 -9 -8 -56 -11 -142 -9 l-129 3 -3
180 c-1 98 0 185 2 192 7 18 257 18 274 1z m-118 -482 c0 -22 -19 -30 -35 -16
-22 18 -18 30 10 30 15 0 25 -6 25 -14z"/>
<path d="M2273 3333 c-10 -3 -13 -49 -13 -177 0 -95 2 -175 4 -177 2 -2 34 -2
70 -1 l66 4 0 84 0 84 55 0 c30 0 55 -4 55 -10 0 -5 -23 -10 -51 -10 l-50 0 2
-75 2 -75 53 0 54 0 0 174 c0 105 -4 177 -10 181 -6 3 -7 -1 -4 -9 5 -13 -3
-16 -46 -16 l-51 0 2 -70 c1 -39 -1 -73 -4 -77 -4 -3 -7 30 -7 73 0 44 4 84 9
89 6 6 -6 10 -32 11 -23 1 -32 -1 -19 -3 39 -8 24 -23 -23 -23 l-45 0 0 -69
c0 -39 -4 -73 -10 -76 -15 -9 -13 148 2 163 13 13 11 14 -9 5z m87 -93 l0 -60
-30 0 -30 0 0 60 0 60 30 0 30 0 0 -60z m130 0 l0 -60 -30 0 -30 0 0 60 0 60
30 0 30 0 0 -60z m-110 -100 c0 -5 -20 -10 -45 -10 l-45 0 0 -69 c0 -39 -4
-73 -10 -76 -11 -7 -14 147 -3 158 10 11 103 8 103 -3z m-20 -80 l0 -60 -30 0
-30 0 0 60 0 60 30 0 30 0 0 -60z m130 0 l0 -60 -30 0 -30 0 0 60 0 60 30 0
30 0 0 -60z"/>
<path d="M2308 3333 c7 -3 16 -2 19 1 4 3 -2 6 -13 5 -11 0 -14 -3 -6 -6z"/>
<path d="M2443 3333 c9 -2 25 -2 35 0 9 3 1 5 -18 5 -19 0 -27 -2 -17 -5z"/>
<path d="M2797 3629 c-11 -6 -27 -30 -38 -53 -17 -38 -19 -70 -19 -399 0 -388
2 -403 55 -445 26 -20 39 -22 179 -22 172 0 185 4 217 74 17 37 19 71 19 386
0 364 -4 405 -45 446 -23 23 -29 24 -187 24 -97 0 -170 -5 -181 -11z m118 -30
c4 -5 4 -45 0 -87 l-7 -77 -66 1 -67 2 -1 43 c-2 52 17 103 43 118 24 14 90
14 98 0z m85 -79 c0 -89 0 -90 -25 -90 -25 0 -25 1 -25 90 0 89 0 90 25 90 25
0 25 -1 25 -90z m125 84 c26 -10 45 -59 45 -116 l0 -53 -67 1 -68 2 -3 86 -3
86 40 0 c22 0 47 -3 56 -6z m-120 -284 c30 19 31 19 63 -2 26 -16 32 -27 32
-53 0 -27 6 -38 30 -52 26 -15 30 -23 30 -60 0 -37 -4 -44 -30 -58 -25 -13
-30 -22 -30 -50 0 -29 -6 -39 -32 -55 -32 -19 -33 -19 -64 -1 -30 18 -32 18
-61 0 -28 -18 -30 -18 -61 1 -25 16 -32 26 -32 52 0 27 -7 37 -35 56 -29 18
-35 28 -35 56 0 28 6 38 35 56 29 18 35 28 35 55 0 26 6 37 31 53 31 19 33 20
62 1 30 -18 32 -18 62 1z m-84 -478 c4 -11 18 -27 30 -36 20 -13 26 -14 44 -2
11 7 25 23 31 36 10 19 21 23 78 24 l66 2 0 -28 c0 -39 -26 -88 -48 -89 -9 -1
-82 -1 -162 0 -125 0 -147 3 -158 18 -14 19 -33 83 -28 92 2 3 35 5 72 5 58
-2 69 -5 75 -22z m79 21 c-1 -19 -19 -35 -34 -30 -26 10 -19 37 9 37 14 0 25
-3 25 -7z"/>
<path d="M3373 3618 c-42 -47 -43 -54 -43 -438 0 -492 -11 -470 230 -470 241
0 230 -22 230 470 0 384 -1 391 -43 438 -20 21 -27 22 -187 22 -160 0 -167 -1
-187 -22z m127 -58 l0 -50 -71 0 -71 0 6 28 c10 42 50 72 97 72 l39 0 0 -50z
m88 -42 l3 -88 -31 0 -30 0 0 83 c0 46 3 87 7 91 4 4 16 6 28 4 18 -3 20 -11
23 -90z m136 70 c14 -13 28 -35 32 -50 l6 -28 -71 0 -71 0 0 50 0 50 39 0 c27
0 48 -7 65 -22z m-175 -250 c6 -24 15 -61 20 -83 l8 -40 17 35 17 35 -4 -37
c-4 -45 4 -47 34 -10 l22 27 -6 -31 c-5 -24 -1 -36 14 -50 17 -15 20 -27 16
-69 -8 -95 -31 -147 -69 -160 -9 -3 -19 -12 -22 -20 -3 -8 -13 -15 -21 -15
-20 0 -85 51 -85 67 0 7 -6 16 -13 20 -44 26 -63 146 -27 178 17 15 17 19 5
32 -8 8 -15 22 -15 30 0 14 2 14 18 1 32 -28 39 -29 34 -3 -2 15 0 25 7 25 6
0 11 -6 11 -14 0 -7 7 -19 15 -26 13 -10 15 -9 15 11 0 24 -11 76 -24 117 -5
16 -3 22 7 22 8 0 19 -18 26 -42z m41 -477 c0 -5 -7 -14 -15 -21 -12 -10 -18
-10 -30 0 -23 19 -18 30 15 30 17 0 30 -4 30 -9z"/>
<path d="M3656 3170 c8 -31 24 -50 24 -29 0 8 -7 24 -16 35 -14 18 -15 18 -8
-6z"/>
<path d="M3450 3166 c-6 -9 -10 -21 -8 -28 3 -8 9 -4 17 10 15 28 9 39 -9 18z"/>
<path d="M3487 3173 c-4 -3 -7 -15 -7 -26 0 -16 3 -17 15 -7 8 7 15 19 15 26
0 15 -12 19 -23 7z"/>
<path d="M3524 3165 c-7 -18 3 -35 22 -35 8 0 14 10 14 25 0 27 -27 35 -36 10z"/>
<path d="M3577 3159 c-7 -26 5 -45 22 -35 14 9 14 18 -2 41 -13 17 -14 17 -20
-6z"/>
<path d="M3614 3165 c3 -9 6 -21 6 -26 0 -5 7 -9 16 -9 23 0 14 44 -10 48 -14
3 -17 0 -12 -13z"/>
<path d="M3450 3115 c-15 -18 -6 -47 12 -40 15 6 23 55 9 55 -5 0 -14 -7 -21
-15z"/>
<path d="M3494 3116 c-8 -22 3 -49 19 -43 6 2 12 14 12 27 0 27 -22 39 -31 16z"/>
<path d="M3546 3103 c-9 -22 22 -49 38 -33 7 7 7 16 0 27 -15 24 -31 27 -38 6z"/>
<path d="M3604 3106 c-8 -22 3 -49 19 -43 6 2 12 14 12 27 0 27 -22 39 -31 16z"/>
<path d="M3650 3096 c0 -30 15 -42 24 -20 10 27 7 44 -9 44 -9 0 -15 -9 -15
-24z"/>
<path d="M3465 3060 c-7 -12 12 -50 25 -50 6 0 10 14 10 30 0 30 -21 42 -35
20z"/>
<path d="M3519 3054 c-10 -12 -9 -18 4 -31 13 -13 19 -14 31 -3 21 17 20 27
-3 39 -14 8 -22 7 -32 -5z"/>
<path d="M3584 3046 c-9 -24 12 -44 28 -28 10 10 8 16 -5 29 -15 15 -17 15
-23 -1z"/>
<path d="M3634 3046 c-8 -21 3 -49 16 -41 5 3 10 15 10 25 0 25 -18 36 -26 16z"/>
<path d="M3505 3000 c-7 -12 2 -30 16 -30 12 0 12 27 0 35 -5 3 -12 1 -16 -5z"/>
<path d="M3553 2994 c-8 -21 13 -42 28 -27 13 13 5 43 -11 43 -6 0 -13 -7 -17
-16z"/>
<path d="M3606 2984 c-4 -9 -4 -19 -2 -21 8 -8 26 8 26 23 0 19 -16 18 -24 -2z"/>
<path d="M3540 2950 c0 -13 33 -21 42 -12 6 6 -1 11 -16 14 -14 3 -26 2 -26
-2z"/>
<path d="M593 2528 c-33 -16 -43 -59 -43 -184 l0 -114 80 0 80 0 0 120 c0 129
-9 162 -47 179 -29 13 -41 13 -70 -1z"/>
<path d="M1165 2515 c-24 -23 -25 -29 -25 -155 l0 -130 75 0 75 0 0 130 c0
126 -1 132 -25 155 -13 14 -36 25 -50 25 -14 0 -37 -11 -50 -25z"/>
<path d="M1755 2518 c-24 -22 -26 -29 -32 -155 l-6 -133 82 0 83 0 -4 136 c-3
129 -4 137 -27 155 -31 25 -64 24 -96 -3z"/>
<path d="M2339 2521 c-23 -18 -24 -26 -27 -155 l-4 -136 83 0 82 0 -6 133 c-6
126 -8 133 -32 155 -32 27 -65 28 -96 3z"/>
<path d="M2925 2515 c-24 -23 -25 -29 -25 -155 l0 -130 75 0 75 0 0 130 c0
126 -1 132 -25 155 -13 14 -36 25 -50 25 -14 0 -37 -11 -50 -25z"/>
<path d="M3524 2528 c-35 -17 -44 -52 -44 -178 l0 -120 80 0 80 0 0 114 c0
128 -10 168 -46 185 -30 13 -42 13 -70 -1z"/>
<path d="M489 2197 c-30 -23 -39 -56 -39 -140 0 -63 -4 -88 -15 -97 -12 -10
-13 -16 -4 -26 9 -11 53 -14 199 -14 146 0 190 3 199 14 9 10 8 16 -4 26 -11
9 -15 34 -15 97 0 84 -9 117 -39 140 -22 17 -260 17 -282 0z m11 -147 c0 -47
-4 -80 -10 -80 -6 0 -10 33 -10 80 0 47 4 80 10 80 6 0 10 -33 10 -80z m40 0
c0 -47 -4 -80 -10 -80 -6 0 -10 33 -10 80 0 47 4 80 10 80 6 0 10 -33 10 -80z
m40 0 c0 -47 -4 -80 -10 -80 -6 0 -10 33 -10 80 0 47 4 80 10 80 6 0 10 -33
10 -80z m40 0 c0 -47 -4 -80 -10 -80 -6 0 -10 33 -10 80 0 47 4 80 10 80 6 0
10 -33 10 -80z m40 0 c0 -47 -4 -80 -10 -80 -6 0 -10 33 -10 80 0 47 4 80 10
80 6 0 10 -33 10 -80z m40 0 c0 -64 -3 -80 -15 -80 -12 0 -15 15 -15 73 0 41
3 77 7 80 17 18 23 0 23 -73z m40 0 c0 -64 -3 -80 -15 -80 -12 0 -15 15 -15
73 0 41 3 77 7 80 17 18 23 0 23 -73z m38 -3 c2 -64 0 -77 -13 -77 -12 0 -15
15 -15 81 0 60 3 80 13 77 8 -3 13 -31 15 -81z"/>
<path d="M1065 2185 c-23 -22 -25 -32 -25 -107 0 -60 -4 -90 -16 -106 -34 -48
-21 -52 191 -52 165 0 197 2 201 15 4 8 2 21 -4 28 -6 6 -13 54 -18 106 -10
137 -15 141 -179 141 -120 0 -127 -1 -150 -25z m25 -135 c0 -47 -4 -80 -10
-80 -6 0 -10 33 -10 80 0 47 4 80 10 80 6 0 10 -33 10 -80z m40 0 c0 -64 -3
-80 -15 -80 -12 0 -15 15 -15 73 0 41 3 77 7 80 17 18 23 0 23 -73z m40 0 c0
-64 -3 -80 -15 -80 -12 0 -15 16 -15 80 0 64 3 80 15 80 12 0 15 -16 15 -80z
m38 -3 c2 -64 0 -77 -13 -77 -12 0 -15 15 -15 81 0 60 3 80 13 77 8 -3 13 -31
15 -81z m32 3 c0 -47 -4 -80 -10 -80 -6 0 -10 33 -10 80 0 47 4 80 10 80 6 0
10 -33 10 -80z m40 0 c0 -47 -4 -80 -10 -80 -6 0 -10 33 -10 80 0 47 4 80 10
80 6 0 10 -33 10 -80z m40 0 c0 -47 -4 -80 -10 -80 -6 0 -10 33 -10 80 0 47 4
80 10 80 6 0 10 -33 10 -80z m40 0 c0 -47 -4 -80 -10 -80 -6 0 -10 33 -10 80
0 47 4 80 10 80 6 0 10 -33 10 -80z"/>
<path d="M1649 2184 c-21 -22 -24 -37 -27 -117 -2 -51 -9 -98 -14 -104 -6 -7
-8 -20 -4 -28 8 -22 391 -23 400 0 3 8 -1 21 -9 29 -11 11 -15 39 -15 106 0
83 -2 93 -25 115 -23 24 -29 25 -153 25 -125 0 -129 -1 -153 -26z m21 -134 c0
-47 -4 -80 -10 -80 -6 0 -10 33 -10 80 0 47 4 80 10 80 6 0 10 -33 10 -80z
m40 0 c0 -47 -4 -80 -10 -80 -6 0 -10 33 -10 80 0 47 4 80 10 80 6 0 10 -33
10 -80z m40 0 c0 -47 -4 -80 -10 -80 -6 0 -10 33 -10 80 0 47 4 80 10 80 6 0
10 -33 10 -80z m40 0 c0 -47 -4 -80 -10 -80 -6 0 -10 33 -10 80 0 47 4 80 10
80 6 0 10 -33 10 -80z m40 0 c0 -47 -4 -80 -10 -80 -6 0 -10 33 -10 80 0 47 4
80 10 80 6 0 10 -33 10 -80z m40 0 c0 -47 -4 -80 -10 -80 -6 0 -10 33 -10 80
0 47 4 80 10 80 6 0 10 -33 10 -80z m40 0 c0 -47 -4 -80 -10 -80 -6 0 -10 33
-10 80 0 47 4 80 10 80 6 0 10 -33 10 -80z m40 0 c0 -47 -4 -80 -10 -80 -6 0
-10 33 -10 80 0 47 4 80 10 80 6 0 10 -33 10 -80z"/>
<path d="M2235 2185 c-23 -22 -25 -32 -25 -115 0 -67 -4 -95 -15 -106 -8 -8
-12 -21 -9 -29 9 -23 392 -22 400 0 4 8 2 21 -4 28 -5 6 -12 53 -14 104 -3 80
-6 95 -27 117 -24 25 -28 26 -153 26 -124 0 -130 -1 -153 -25z m25 -135 c0
-47 -4 -80 -10 -80 -6 0 -10 33 -10 80 0 47 4 80 10 80 6 0 10 -33 10 -80z
m40 0 c0 -47 -4 -80 -10 -80 -6 0 -10 33 -10 80 0 47 4 80 10 80 6 0 10 -33
10 -80z m40 0 c0 -47 -4 -80 -10 -80 -6 0 -10 33 -10 80 0 47 4 80 10 80 6 0
10 -33 10 -80z m40 0 c0 -64 -3 -80 -15 -80 -12 0 -15 15 -15 73 0 41 3 77 7
80 17 18 23 0 23 -73z m40 0 c0 -64 -3 -80 -15 -80 -12 0 -15 15 -15 73 0 41
3 77 7 80 17 18 23 0 23 -73z m38 -3 c2 -64 0 -77 -13 -77 -12 0 -15 15 -15
81 0 60 3 80 13 77 8 -3 13 -31 15 -81z m40 0 c2 -64 0 -77 -13 -77 -12 0 -15
15 -15 81 0 60 3 80 13 77 8 -3 13 -31 15 -81z m32 3 c0 -47 -4 -80 -10 -80
-6 0 -10 33 -10 80 0 47 4 80 10 80 6 0 10 -33 10 -80z"/>
<path d="M2828 2190 c-23 -18 -26 -29 -33 -117 -4 -54 -12 -104 -17 -110 -6
-7 -8 -20 -4 -28 4 -13 36 -15 201 -15 212 0 225 4 191 52 -12 16 -16 46 -16
106 0 75 -2 85 -25 107 -23 24 -30 25 -148 25 -109 0 -127 -2 -149 -20z m20
-143 c2 -64 0 -77 -13 -77 -12 0 -15 15 -15 81 0 60 3 80 13 77 8 -3 13 -31
15 -81z m40 0 c2 -64 0 -77 -13 -77 -12 0 -15 15 -15 81 0 60 3 80 13 77 8 -3
13 -31 15 -81z m32 3 c0 -47 -4 -80 -10 -80 -6 0 -10 33 -10 80 0 47 4 80 10
80 6 0 10 -33 10 -80z m40 0 c0 -47 -4 -80 -10 -80 -6 0 -10 33 -10 80 0 47 4
80 10 80 6 0 10 -33 10 -80z m40 0 c0 -47 -4 -80 -10 -80 -6 0 -10 33 -10 80
0 47 4 80 10 80 6 0 10 -33 10 -80z m40 0 c0 -47 -4 -80 -10 -80 -6 0 -10 33
-10 80 0 47 4 80 10 80 6 0 10 -33 10 -80z m40 0 c0 -47 -4 -80 -10 -80 -6 0
-10 33 -10 80 0 47 4 80 10 80 6 0 10 -33 10 -80z m40 0 c0 -47 -4 -80 -10
-80 -6 0 -10 33 -10 80 0 47 4 80 10 80 6 0 10 -33 10 -80z"/>
<path d="M3419 2197 c-30 -23 -39 -56 -39 -140 0 -63 -4 -88 -15 -97 -12 -10
-13 -16 -4 -26 9 -11 53 -14 199 -14 146 0 190 3 199 14 9 10 8 16 -4 26 -11
9 -15 34 -15 97 0 84 -9 117 -39 140 -22 17 -260 17 -282 0z m11 -147 c0 -47
-4 -80 -10 -80 -6 0 -10 33 -10 80 0 47 4 80 10 80 6 0 10 -33 10 -80z m40 0
c0 -47 -4 -80 -10 -80 -6 0 -10 33 -10 80 0 47 4 80 10 80 6 0 10 -33 10 -80z
m40 0 c0 -47 -4 -80 -10 -80 -6 0 -10 33 -10 80 0 47 4 80 10 80 6 0 10 -33
10 -80z m40 0 c0 -47 -4 -80 -10 -80 -6 0 -10 33 -10 80 0 47 4 80 10 80 6 0
10 -33 10 -80z m40 0 c0 -47 -4 -80 -10 -80 -6 0 -10 33 -10 80 0 47 4 80 10
80 6 0 10 -33 10 -80z m40 0 c0 -47 -4 -80 -10 -80 -6 0 -10 33 -10 80 0 47 4
80 10 80 6 0 10 -33 10 -80z m40 0 c0 -64 -3 -80 -15 -80 -12 0 -15 15 -15 73
0 41 3 77 7 80 17 18 23 0 23 -73z m40 0 c0 -64 -3 -80 -15 -80 -12 0 -15 16
-15 80 0 64 3 80 15 80 12 0 15 -16 15 -80z"/>
<path d="M463 1884 c-13 -34 24 -44 167 -44 143 0 180 10 167 44 -6 14 -27 16
-167 16 -140 0 -161 -2 -167 -16z"/>
<path d="M1057 1893 c-13 -12 -7 -41 9 -47 20 -8 278 -8 298 0 9 3 16 17 16
30 l0 24 -158 0 c-87 0 -162 -3 -165 -7z"/>
<path d="M1636 1885 c-3 -8 2 -21 10 -30 12 -12 43 -15 153 -15 145 0 181 9
168 44 -6 14 -27 16 -166 16 -131 0 -160 -3 -165 -15z"/>
<path d="M2223 1884 c-13 -35 23 -44 168 -44 110 0 141 3 153 15 8 9 13 22 10
30 -5 12 -34 15 -165 15 -139 0 -160 -2 -166 -16z"/>
<path d="M2810 1876 c0 -13 7 -27 16 -30 24 -9 287 -7 302 3 8 5 12 17 10 27
-3 18 -16 19 -166 22 l-162 2 0 -24z"/>
<path d="M3393 1884 c-13 -34 24 -44 167 -44 143 0 180 10 167 44 -6 14 -27
16 -167 16 -140 0 -161 -2 -167 -16z"/>
<path d="M446 1805 c-14 -13 -31 -36 -36 -50 -15 -38 -13 -760 1 -788 6 -12
21 -32 32 -45 20 -21 27 -22 187 -22 160 0 167 1 187 23 11 12 26 32 32 44 14
28 16 750 1 788 -5 14 -22 37 -36 50 -26 24 -31 25 -184 25 -153 0 -158 -1
-184 -25z m124 -100 l0 -85 -70 0 -70 0 0 50 c0 52 20 104 42 113 7 3 32 6 56
6 l42 1 0 -85z m90 0 l0 -85 -30 0 -30 0 0 85 0 85 30 0 30 0 0 -85z m125 79
c25 -10 45 -59 45 -114 l0 -50 -70 0 -70 0 0 85 0 85 39 0 c22 0 47 -3 56 -6z
m-30 -295 c8 -15 15 -46 15 -68 0 -22 5 -43 10 -46 9 -6 50 -78 50 -89 0 -13
-93 -38 -120 -33 -21 5 -30 3 -30 -7 0 -32 -131 -109 -151 -89 -19 19 -22 82
-5 107 21 32 21 33 -9 40 -21 5 -75 68 -75 87 0 13 81 39 103 34 18 -4 26 3
43 38 17 34 26 42 50 43 16 1 40 6 54 11 32 13 47 7 65 -28z m-170 -472 c14
-22 28 -32 45 -32 17 0 31 10 45 32 19 31 22 32 89 33 l69 0 -6 -36 c-3 -20
-13 -47 -22 -60 -15 -24 -18 -24 -175 -24 -157 0 -160 0 -175 24 -9 13 -19 40
-22 60 l-6 36 69 0 c67 -1 70 -2 89 -33z m65 13 c-6 -11 -15 -20 -20 -20 -5 0
-14 9 -20 20 -10 18 -8 20 20 20 28 0 30 -2 20 -20z"/>
<path d="M1041 1814 c-13 -9 -32 -35 -42 -58 -17 -37 -19 -71 -19 -386 0 -364
4 -405 45 -446 23 -23 29 -24 185 -24 97 0 169 4 182 11 11 6 28 29 39 52 17
39 19 70 19 400 0 388 -2 403 -55 445 -26 20 -39 22 -179 22 -124 0 -156 -3
-175 -16z m119 -69 l0 -45 -70 0 c-62 0 -70 2 -70 19 0 10 9 30 21 45 17 22
28 26 70 26 l49 0 0 -45z m80 -40 c0 -84 0 -85 -25 -85 -25 0 -25 1 -25 85 0
84 0 85 25 85 25 0 25 -1 25 -85z m149 59 c12 -15 21 -35 21 -46 0 -17 -7 -19
-67 -16 l-68 3 -3 43 -3 42 50 0 c42 0 53 -4 70 -26z m0 -321 c14 -49 14 -77
-1 -124 -27 -91 -135 -169 -236 -169 -64 0 -87 11 -107 50 l-15 29 147 156
147 157 28 -31 c15 -16 32 -47 37 -68z m-149 -401 c0 -19 -23 -32 -37 -21 -20
17 -15 29 12 29 14 0 25 -4 25 -8z"/>
<path d="M1186 1374 c-65 -69 -117 -126 -115 -128 20 -17 76 -36 108 -36 102
0 173 70 173 170 0 43 -21 102 -40 114 -5 3 -62 -51 -126 -120z m134 92 c0
-11 -19 -15 -25 -6 -3 5 1 10 9 10 9 0 16 -2 16 -4z m-42 -55 c3 -8 -1 -12 -9
-9 -7 2 -15 10 -17 17 -3 8 1 12 9 9 7 -2 15 -10 17 -17z m47 -1 c3 -5 1 -10
-4 -10 -6 0 -11 5 -11 10 0 6 2 10 4 10 3 0 8 -4 11 -10z m-97 -59 c3 -8 -1
-12 -9 -9 -7 2 -15 10 -17 17 -3 8 1 12 9 9 7 -2 15 -10 17 -17z m82 -13 c0
-13 -23 -5 -28 10 -2 7 2 10 12 6 9 -3 16 -11 16 -16z m-140 -24 c0 -8 -4 -12
-10 -9 -5 3 -10 10 -10 16 0 5 5 9 10 9 6 0 10 -7 10 -16z m91 -27 c-1 -12
-15 -9 -19 4 -3 6 1 10 8 8 6 -3 11 -8 11 -12z m-131 -27 c0 -5 -4 -10 -10
-10 -5 0 -10 5 -10 10 0 6 5 10 10 10 6 0 10 -4 10 -10z m80 0 c0 -5 -4 -10
-9 -10 -6 0 -13 5 -16 10 -3 6 1 10 9 10 9 0 16 -4 16 -10z"/>
<path d="M1633 1818 c-13 -6 -32 -30 -43 -53 -19 -39 -20 -61 -20 -403 0 -373
2 -397 42 -440 21 -21 28 -22 188 -22 l166 0 26 28 c45 47 49 89 46 462 -4
460 6 440 -233 439 -85 0 -160 -5 -172 -11z m115 -70 l-3 -43 -59 -3 c-72 -4
-86 1 -79 27 11 41 41 61 94 61 l50 0 -3 -42z m82 -43 c0 -84 0 -85 -25 -85
-25 0 -25 1 -25 85 0 84 0 85 25 85 25 0 25 -1 25 -85z m150 53 c32 -53 28
-58 -50 -58 l-70 0 0 45 0 45 50 0 c46 0 52 -3 70 -32z m-119 -244 c67 -34 99
-174 60 -259 -29 -62 -65 -90 -116 -90 -132 0 -182 220 -75 327 42 43 80 49
131 22z m-31 -473 c0 -14 -28 -33 -40 -26 -20 12 -10 35 15 35 14 0 25 -4 25
-9z"/>
<path d="M1764 1491 c-56 -34 -82 -150 -50 -224 28 -67 97 -101 104 -51 2 12
-8 54 -22 94 -30 85 -32 107 -11 157 8 20 14 37 12 39 -2 2 -17 -5 -33 -15z"/>
<path d="M1806 1484 c-11 -30 -6 -99 14 -161 12 -39 17 -75 13 -98 -6 -36 -5
-37 16 -24 77 47 82 232 7 284 -27 19 -42 19 -50 -1z"/>
<path d="M2212 1814 c-55 -38 -57 -51 -60 -424 -3 -373 1 -415 46 -462 l26
-28 166 0 c160 0 167 1 188 23 40 42 42 66 42 439 0 342 -1 364 -20 403 -11
23 -32 47 -46 53 -15 8 -82 12 -172 12 -118 0 -152 -3 -170 -16z m118 -69 l0
-45 -70 0 c-78 0 -82 5 -50 58 18 29 24 32 70 32 l50 0 0 -45z m80 -40 c0 -84
0 -85 -25 -85 -25 0 -25 1 -25 85 0 84 0 85 25 85 25 0 25 -1 25 -85z m149 64
c25 -27 33 -59 17 -65 -7 -3 -40 -4 -72 -2 l-59 3 -3 43 -3 42 50 0 c38 0 55
-5 70 -21z m-102 -234 c24 -21 26 -26 13 -35 -19 -12 -71 -13 -103 -1 -21 8
-16 -2 30 -64 40 -54 62 -74 84 -79 45 -9 79 -48 79 -91 0 -48 -47 -98 -88
-94 -22 3 -36 -5 -59 -31 -26 -29 -38 -35 -71 -35 -93 0 -134 114 -56 155 21
12 24 20 24 75 0 55 -15 131 -35 179 -7 17 -5 18 20 14 18 -4 39 1 59 13 42
25 69 24 103 -6z m-49 -502 c-5 -25 -25 -27 -38 -4 -10 19 -8 21 15 21 19 0
26 -5 23 -17z"/>
<path d="M2324 1455 c3 -9 9 -51 12 -95 4 -44 10 -80 14 -80 4 0 16 12 25 28
10 15 24 31 32 35 10 6 11 13 2 30 -32 60 -103 129 -85 82z"/>
<path d="M2460 1342 c0 -4 5 -13 10 -18 8 -8 6 -15 -4 -24 -19 -15 -48 -6 -40
14 9 24 -14 28 -30 4 -20 -28 -20 -38 -2 -38 20 0 46 -39 46 -67 0 -19 5 -23
34 -23 88 0 102 113 19 147 -18 7 -33 9 -33 5z"/>
<path d="M2337 1254 c-16 -9 -34 -13 -42 -11 -39 15 -48 -67 -12 -101 36 -34
89 -30 121 9 30 35 33 65 10 97 -18 26 -38 27 -77 6z"/>
<path d="M2795 1808 c-53 -42 -55 -57 -55 -445 0 -330 2 -361 19 -400 11 -23
28 -46 39 -52 13 -7 85 -11 182 -11 156 0 162 1 185 24 41 41 45 82 45 446 -1
474 7 460 -236 460 -140 0 -153 -2 -179 -22z m125 -103 l0 -85 -75 0 -75 0 0
39 c0 88 33 131 102 131 l48 0 0 -85z m80 0 c0 -84 0 -85 -25 -85 -25 0 -25 1
-25 85 0 84 0 85 25 85 25 0 25 -1 25 -85z m152 54 c11 -14 22 -50 25 -82 l6
-57 -77 0 -76 0 0 86 0 85 51 -3 c42 -2 56 -8 71 -29z m-97 -224 c32 -31 32
-45 -1 -45 -51 0 -106 49 -71 63 27 11 49 6 72 -18z m-83 -37 c14 -41 16 -43
60 -46 67 -4 93 -36 93 -110 -1 -44 -8 -70 -30 -110 -33 -60 -66 -82 -124 -82
-32 0 -47 7 -74 33 -112 113 -93 293 28 263 22 -6 25 -3 25 23 0 16 -4 33 -10
36 -15 9 -12 35 4 35 8 0 21 -19 28 -42z m-48 -473 c4 -14 18 -31 31 -37 22
-10 29 -8 50 12 14 13 25 29 25 37 0 10 20 13 76 13 l76 0 -7 -32 c-4 -18 -15
-44 -24 -58 -18 -25 -20 -25 -178 -28 -159 -2 -160 -2 -176 21 -9 13 -19 40
-22 61 l-7 36 75 0 c72 0 75 -1 81 -25z m76 17 c0 -19 -23 -32 -37 -21 -20 17
-15 29 12 29 14 0 25 -4 25 -8z"/>
<path d="M3376 1805 c-14 -13 -31 -36 -36 -50 -15 -38 -13 -760 1 -788 6 -12
21 -32 32 -45 20 -21 27 -22 187 -22 160 0 167 1 187 23 42 46 43 53 43 437 0
494 12 470 -238 470 -145 0 -150 -1 -176 -25z m124 -100 l0 -85 -70 0 -70 0 0
50 c0 52 20 104 42 113 7 3 32 6 56 6 l42 1 0 -85z m90 0 l0 -85 -30 0 -30 0
0 85 0 85 30 0 30 0 0 -85z m125 79 c25 -10 45 -59 45 -114 l0 -50 -70 0 -70
0 0 85 0 85 39 0 c22 0 47 -3 56 -6z m-48 -256 c13 -12 23 -27 23 -35 0 -22
-54 -15 -95 13 -31 21 -36 22 -30 7 4 -10 11 -30 17 -45 5 -16 18 -28 31 -30
16 -2 29 -23 55 -82 41 -94 38 -132 -13 -183 -28 -28 -40 -33 -80 -33 -88 0
-145 48 -145 122 0 39 62 144 100 171 23 16 23 24 4 86 -6 19 -4 23 8 19 8 -4
21 -2 29 3 25 16 72 10 96 -13z m-152 -511 c14 -22 28 -32 45 -32 17 0 31 10
45 32 19 31 23 32 88 33 67 0 67 0 67 -27 0 -16 -9 -43 -20 -60 l-20 -33 -160
0 -160 0 -20 33 c-11 17 -20 44 -20 60 0 27 0 27 68 27 64 -1 68 -2 87 -33z
m65 13 c-6 -11 -15 -20 -20 -20 -5 0 -14 9 -20 20 -10 18 -8 20 20 20 28 0 30
-2 20 -20z"/>
<path d="M390 425 l0 -315 1705 0 1705 0 0 315 0 315 -1705 0 -1705 0 0 -315z
m708 203 c-3 -22 -7 -23 -120 -26 l-118 -3 0 -54 0 -54 98 -3 c89 -3 97 -5 97
-23 0 -18 -8 -20 -95 -25 l-95 -5 -3 -87 -3 -87 128 -3 c120 -3 128 -4 128
-23 0 -19 -7 -20 -150 -20 l-150 0 -3 205 c-1 112 0 210 2 217 4 10 41 13 146
13 141 0 141 0 138 -22z m380 -175 l2 -192 128 -3 c119 -3 127 -4 127 -23 0
-19 -8 -20 -139 -23 -93 -2 -143 1 -152 9 -11 9 -14 53 -14 214 0 111 3 205 7
209 4 4 14 5 23 4 13 -3 15 -31 18 -195z m367 -23 c0 -208 -1 -215 -20 -215
-19 0 -20 8 -23 205 -1 112 0 211 3 218 3 7 13 12 22 10 17 -3 18 -21 18 -218z
m390 201 c45 -20 91 -69 112 -118 19 -48 16 -132 -6 -177 -20 -38 -20 -38 1
-66 22 -30 19 -60 -6 -60 -7 0 -21 11 -30 25 l-16 25 -41 -21 c-152 -80 -329
22 -329 189 0 90 44 162 123 201 53 27 137 28 192 2z m245 -141 c6 -173 12
-194 67 -216 44 -19 83 -11 114 22 23 24 24 34 29 187 5 154 6 162 25 162 19
0 20 -8 23 -161 2 -153 1 -162 -20 -194 -52 -76 -122 -97 -198 -58 -33 17 -51
35 -67 68 -21 39 -23 59 -23 181 0 149 4 172 29 167 14 -3 17 -26 21 -158z
m405 -60 c0 -208 -1 -215 -20 -215 -19 0 -20 8 -23 205 -1 112 0 211 3 218 3
7 13 12 22 10 17 -3 18 -21 18 -218z m360 201 c141 -65 177 -234 74 -346 -55
-60 -109 -77 -230 -73 l-94 3 -3 205 c-1 112 0 210 2 217 9 22 201 17 251 -6z
m-1905 -156 c21 -26 0 -35 -80 -35 -80 0 -101 9 -80 35 9 11 33 15 80 15 47 0
71 -4 80 -15z"/>
<path d="M2080 593 c-35 -13 -72 -47 -90 -83 -72 -140 70 -296 214 -236 19 8
37 19 40 25 4 6 -7 31 -25 55 -32 45 -34 76 -4 76 8 0 27 -18 42 -41 25 -38
28 -40 41 -22 9 12 12 37 10 75 -5 66 -37 116 -91 142 -34 15 -106 20 -137 9z"/>
<path d="M3040 430 l0 -170 73 0 c111 1 168 33 202 115 23 54 13 116 -28 162
-43 48 -82 63 -172 63 l-75 0 0 -170z"/>
</g>
</svg>
