<?xml version="1.0" standalone="no"?>
<!DOCTYPE svg PUBLIC "-//W3C//DTD SVG 20010904//EN"
 "http://www.w3.org/TR/2001/REC-SVG-20010904/DTD/svg10.dtd">
<svg version="1.0" xmlns="http://www.w3.org/2000/svg"
 width="460.000000pt" height="460.000000pt" viewBox="0 0 460.000000 460.000000"
 preserveAspectRatio="xMidYMid meet">

<g transform="translate(0.000000,460.000000) scale(0.100000,-0.100000)"
fill="#000000" stroke="none">
<path d="M1692 4564 c-40 -27 -124 -225 -147 -344 -4 -19 -16 -64 -27 -100
-10 -36 -25 -96 -32 -135 -8 -38 -23 -117 -34 -175 -47 -238 -71 -377 -74
-420 l-3 -44 55 -8 c30 -4 105 -17 165 -27 261 -47 727 -64 992 -36 158 16
383 64 383 82 0 22 -41 250 -59 328 -10 44 -22 100 -26 125 -4 25 -15 77 -25
115 -10 39 -21 88 -25 110 -16 96 -118 427 -143 465 -9 14 -21 34 -27 45 -25
47 -109 44 -165 -6 -19 -17 -60 -52 -90 -79 -30 -27 -70 -62 -88 -78 -48 -42
-131 -82 -171 -82 -48 0 -127 44 -175 97 -156 174 -220 212 -284 167z"/>
<path d="M1190 2969 c-69 -17 -159 -40 -200 -51 -41 -12 -100 -27 -130 -33
-65 -15 -220 -62 -344 -104 -185 -64 -316 -145 -316 -195 0 -54 185 -152 380
-201 30 -8 80 -21 110 -30 64 -18 283 -61 385 -76 39 -5 144 -21 235 -34 152
-22 451 -45 775 -60 221 -9 771 23 1020 60 88 13 198 29 245 35 46 7 87 13 91
15 3 2 55 13 115 25 293 55 550 146 632 223 37 36 39 50 12 84 -24 31 -115 91
-150 100 -14 3 -29 9 -35 13 -25 19 -263 95 -425 136 -30 8 -95 25 -145 38
-49 14 -154 39 -232 57 l-141 32 -47 -22 c-99 -47 -326 -88 -583 -106 -225
-17 -253 -17 -473 -1 -138 10 -271 26 -324 38 -49 11 -112 24 -139 30 -27 5
-73 20 -103 34 -31 13 -63 24 -72 23 -9 0 -72 -14 -141 -30z"/>
<path d="M770 2157 c-14 -12 -68 -58 -120 -102 -52 -43 -104 -88 -116 -100
-27 -26 -60 -55 -237 -205 -143 -122 -146 -125 -115 -128 95 -7 291 -35 348
-49 36 -8 101 -23 145 -33 133 -30 451 -119 533 -148 l53 -19 -68 -58 c-37
-33 -79 -69 -93 -82 -14 -12 -40 -35 -58 -50 -19 -15 -46 -39 -61 -53 -15 -14
-49 -43 -74 -64 l-46 -40 77 -24 c42 -13 100 -34 127 -47 28 -12 61 -26 75
-30 14 -4 48 -18 75 -30 28 -13 73 -33 100 -45 85 -37 194 -89 340 -162 77
-39 181 -90 230 -115 50 -24 98 -48 108 -54 51 -28 128 -69 131 -69 3 0 14 40
25 88 11 48 30 114 41 146 21 61 26 116 11 116 -19 0 -242 191 -333 285 -126
129 -150 156 -216 240 -40 50 -78 97 -84 104 -7 8 -20 25 -28 37 -75 111 -111
166 -136 207 -16 26 -40 64 -52 84 -36 55 -150 284 -158 316 -12 49 -47 60
-279 87 -49 6 -97 13 -105 15 -9 3 -27 -5 -40 -18z"/>
<path d="M3629 2176 c-2 -3 -71 -12 -153 -21 -225 -24 -206 -16 -206 -94 0
-37 -11 -110 -25 -166 -14 -55 -25 -108 -25 -118 0 -11 -12 -29 -27 -42 -16
-13 -89 -74 -163 -136 -182 -153 -396 -375 -495 -515 -11 -15 -35 -47 -52 -71
-18 -24 -33 -47 -33 -52 0 -4 -9 -20 -21 -34 -32 -41 -129 -234 -162 -322 -65
-175 -106 -407 -92 -529 5 -55 9 -65 20 -56 8 7 17 22 21 33 4 12 18 40 33 62
14 22 31 48 36 57 146 236 393 471 652 621 26 15 55 32 63 37 24 15 170 86
235 115 73 32 232 84 378 122 l108 29 -113 54 c-355 168 -350 165 -330 183 76
69 616 217 977 267 44 6 111 17 149 23 l68 12 -40 32 c-22 18 -52 38 -66 44
-14 7 -26 15 -26 19 0 3 -22 19 -50 35 -27 16 -50 33 -50 37 0 4 -15 15 -32
23 -18 8 -67 40 -108 71 -75 56 -230 164 -279 196 -14 9 -31 21 -37 26 -51 45
-136 76 -155 58z"/>
<path d="M1365 2093 c-3 -12 -1 -53 5 -89 21 -129 109 -215 257 -248 184 -41
333 4 416 127 41 60 82 95 123 103 83 15 148 -18 205 -106 18 -27 35 -50 39
-50 4 0 24 -13 44 -30 122 -96 381 -73 512 47 51 47 76 108 82 197 4 73 3 78
-14 72 -52 -16 -242 -47 -344 -56 -145 -12 -651 -13 -875 0 -93 5 -232 20
-307 33 l-137 24 -6 -24z"/>
</g>
</svg>
